<?xml version="1.0" encoding="utf-8"?>
<!-- Generator: Adobe Illustrator 16.0.4, SVG Export Plug-In . SVG Version: 6.00 Build 0)  -->
<!DOCTYPE svg PUBLIC "-//W3C//DTD SVG 1.1//EN" "http://www.w3.org/Graphics/SVG/1.1/DTD/svg11.dtd">
<svg version="1.1" id="Layer_1" xmlns="http://www.w3.org/2000/svg" xmlns:xlink="http://www.w3.org/1999/xlink" x="0px" y="0px"
	 width="60px" height="60px" viewBox="0 0 60 60" enable-background="new 0 0 60 60" xml:space="preserve">
<polygon fill="#FFFFFF" points="11,21.998 0,21.998 0,37.998 11,37.998 32,50.998 32,8.998 "/>
<g>
	<path fill="#FFFFFF" d="M46.645,51.498c-0.527,0-1.049-0.287-1.311-0.771c-0.404-0.74-0.15-1.646,0.588-2.052
		c6.814-3.76,11.051-10.905,11.051-18.679c0-7.771-4.236-14.917-11.051-18.676c-0.738-0.406-0.992-1.312-0.588-2.041
		c0.408-0.73,1.316-0.991,2.053-0.588C55.178,12.971,60,21.135,60,29.996c0,8.854-4.822,17.029-12.613,21.316
		C47.154,51.439,46.895,51.498,46.645,51.498"/>
	<path fill="#FFFFFF" d="M42.988,44.837c-0.549,0-1.049-0.287-1.332-0.774c-0.408-0.736-0.131-1.642,0.59-2.049
		c4.388-2.416,7.107-7.017,7.107-12.018c0-4.998-2.722-9.6-7.107-12.014c-0.721-0.397-0.998-1.312-0.59-2.041
		c0.404-0.731,1.334-0.992,2.053-0.588c5.344,2.943,8.674,8.551,8.674,14.643c0,6.084-3.33,11.71-8.674,14.656
		C43.477,44.777,43.23,44.837,42.988,44.837"/>
</g>
</svg>
