<?xml version="1.0" encoding="utf-8"?>
<!-- Generator: Adobe Illustrator 16.0.4, SVG Export Plug-In . SVG Version: 6.00 Build 0)  -->
<!DOCTYPE svg PUBLIC "-//W3C//DTD SVG 1.1//EN" "http://www.w3.org/Graphics/SVG/1.1/DTD/svg11.dtd">
<svg version="1.1" id="Layer_1" xmlns="http://www.w3.org/2000/svg" xmlns:xlink="http://www.w3.org/1999/xlink" x="0px" y="0px"
	 width="60px" height="60px" viewBox="0 0 60 60" enable-background="new 0 0 60 60" xml:space="preserve">
<polygon fill="#FFFFFF" points="22.222,44.658 22.224,15.55 43.777,30.104 "/>
<g>
	<path fill="#FFFFFF" d="M30,6c13.234,0,24,10.766,24,24c0,13.233-10.767,23.999-24,23.999C16.767,53.999,6,43.233,6,30
		C6,16.766,16.767,6,30,6 M30,0C13.432,0,0,13.432,0,30C0,46.567,13.432,59.999,30,59.999c16.569,0,30-13.432,30-29.999
		C60,13.432,46.568,0,30,0L30,0z"/>
</g>
</svg>
