<?xml version="1.0" encoding="utf-8"?>
<!-- Generator: Adobe Illustrator 16.0.4, SVG Export Plug-In . SVG Version: 6.00 Build 0)  -->
<!DOCTYPE svg PUBLIC "-//W3C//DTD SVG 1.1//EN" "http://www.w3.org/Graphics/SVG/1.1/DTD/svg11.dtd">
<svg version="1.1" id="Layer_1" xmlns="http://www.w3.org/2000/svg" xmlns:xlink="http://www.w3.org/1999/xlink" x="0px" y="0px"
	 width="60px" height="60px" viewBox="0 0 60 60" enable-background="new 0 0 60 60" xml:space="preserve">
<g>
	<path fill="#FFFFFF" d="M29.999,6C43.233,6,54,16.766,54,30c0,13.233-10.767,23.999-24.001,23.999C16.766,53.999,6,43.233,6,30
		C6,16.766,16.766,6,29.999,6 M29.999,0C13.432,0,0,13.432,0,30c0,16.567,13.432,29.999,29.999,29.999
		C46.568,59.999,60,46.567,60,30C60,13.432,46.568,0,29.999,0L29.999,0z"/>
</g>
<rect x="20" y="19" fill="#FFFFFF" width="6" height="22"/>
<rect x="34" y="19" fill="#FFFFFF" width="6" height="22"/>
</svg>
